<?xml version="1.0" encoding="utf-8"?>
<!-- Generator: Adobe Illustrator 21.1.0, SVG Export Plug-In . SVG Version: 6.00 Build 0)  -->
<svg version="1.1" id="Capa_1" xmlns="http://www.w3.org/2000/svg" xmlns:xlink="http://www.w3.org/1999/xlink" x="0px" y="0px"
	 viewBox="0 0 176.3 176.3" style="enable-background:new 0 0 176.3 176.3;" xml:space="preserve">
<style type="text/css">
	.st0{fill:#FFFFFF;}
</style>
<path class="st0" d="M123.1,8.4C113.6,2.9,102.9,0,91.9,0c-22.3,0-43,12-54.2,31.3c-8.3,14.5-10.6,31.3-6.2,47.4
	c3.7,13.7,11.7,25.4,22.9,33.8l-32.5,56.3l13,7.5L67.4,120c7.7,3.3,16.1,5,24.5,5c22.3,0,43-12,54.2-31.3
	c8.3-14.5,10.6-31.3,6.2-47.4C147.9,30.2,137.6,16.7,123.1,8.4z M115.6,21.4c11,6.3,18.8,16.6,22.1,28.8c3.3,12.3,1.6,25.1-4.7,36
	c-8.5,14.7-24.2,23.8-41.2,23.8c-8.3,0-16.5-2.2-23.7-6.4c-11-6.3-18.8-16.6-22.1-28.8c-3.3-12.3-1.6-25.1,4.7-36
	C59.2,24.1,75,15,91.9,15C100.2,15,108.4,17.2,115.6,21.4z"/>
</svg>
