<svg id="Icons" xmlns="http://www.w3.org/2000/svg" viewBox="0 0 66 66"><defs><style>.cls-1{fill:#2c4251;}.cls-2{fill:#344e5f;}.cls-3{opacity:0.15;}.cls-4{fill:#edc03d;}</style></defs><title>user</title><g id="User"><g id="Circle_Shadow" data-name="Circle Shadow"><circle class="cls-1" cx="33" cy="34" r="31"/></g><g id="Circle"><circle class="cls-2" cx="33" cy="32" r="31"/></g><path id="Long_Shadow" data-name="Long Shadow" class="cls-3" d="M22.48,47.35,37.76,62.64A31,31,0,0,0,62.32,42.07L38.08,17.83Z"/><g id="User-2" data-name="User"><path class="cls-4" d="M43.94,45.31c-1.44-8.57-3.12-12-7.37-13A12.19,12.19,0,0,0,40,24.1c0-4.47-1.56-8.1-7-8.1s-7,3.63-7,8.1a12.19,12.19,0,0,0,3.43,8.25c-4.25,1-5.93,4.39-7.37,13A2,2,0,0,0,24,48H42A2,2,0,0,0,43.94,45.31Z"/></g></g></svg>